<svg width="168" height="154" xmlns="http://www.w3.org/2000/svg" xmlns:xlink="http://www.w3.org/1999/xlink" xml:space="preserve" overflow="hidden"><g transform="translate(-626 -146)"><path d="M105.638 89.1041C105.308 85.6025 103.573 82.6926 100.4 81.4236 98.2385 80.5596 91.8315 82.1022 91.8315 79.7746L87.2028 80.739C87.2028 86.0546 91.5119 90.364 96.8278 90.364L96.8278 90.364 103.073 90.364C103.343 90.6707 103.738 90.8655 104.178 90.8655 104.992 90.8655 105.652 90.2055 105.652 89.3915 105.652 89.3373 105.642 89.1467 105.638 89.1041Z" fill="#D2D2D2" transform="matrix(1.09091 0 0 1 626 146)"/><path d="M102.708 110.586C102.708 105.301 98.4464 101.012 93.1722 100.964 95.2265 97.354 96.7983 93.4828 97.8638 89.4583 100.1 81.0104 99.6951 67.8562 99.6951 67.8562 95.1595 65.6425 88.3873 71.8285 85.5345 75.7808 80.8718 82.2402 76.2945 90.5927 76.2945 99.5225 76.2945 104.595 81.1712 110.586 85.8836 110.586L102.708 110.586Z" fill="#737373" transform="matrix(1.09091 0 0 1 626 146)"/><path d="M108.911 55.825 108.383 55.825C104.091 55.825 100.215 53.4556 98.0447 49.7526 96.601 47.2892 94.3061 45.3854 91.5639 44.4441 91.3316 41.2675 89.9998 37.6982 88.3918 37.6982 86.8525 37.6982 85.5669 40.9682 85.256 44.0337 84.0917 44.2692 82.989 44.6732 81.9729 45.2183 81.9235 41.879 80.5077 37.6982 78.7668 37.6982 76.9949 37.6982 75.5585 42.0314 75.5585 45.3982L75.5585 55.8722 75.6195 55.8722C75.6403 61.8618 80.0386 66.82 85.7825 67.7132 85.9038 67.7321 86.1675 67.7645 86.1675 67.7645 86.1675 67.7645 85.8759 68.1941 85.7575 68.3612 81.886 73.844 76.9365 78.4643 71.2247 81.9466L71.2247 62.4021C71.2247 58.7478 70.2064 55.3312 68.4379 52.421 67.0542 50.0715 56.4763 44.06 49.8575 49.8575 43.9968 54.9908 48.8629 64.7977 49.8103 65.947 51.163 67.6047 51.975 72.0271 51.975 72.0271L51.975 94.6522C51.975 104.428 58.6403 112.723 67.6509 115.216 70.6186 116.037 73.782 115.778 76.616 114.573L78.8217 113.636 79.4297 114.784C79.8201 115.521 80.586 115.982 81.4201 115.982L99.4773 115.982C99.4773 110.666 95.1681 106.357 89.8523 106.357L89.8523 106.357 84.3737 106.356C81.5334 106.355 79.0995 104.295 78.6622 101.489 78.5185 100.566 78.4437 99.62 78.4437 98.6566 78.4437 93.349 80.7053 88.5699 84.3169 85.2297 85.888 88.2507 89.0444 90.3149 92.6849 90.3149L97.5471 90.3149C97.7704 90.6941 98.1821 90.9495 98.654 90.9495 99.1259 90.9495 99.5373 90.6941 99.7606 90.3149L100.055 90.3149C100.278 90.6941 100.689 90.9495 101.161 90.9495 101.871 90.9495 102.446 90.3743 102.446 89.6646 102.446 89.5083 102.454 89.3011 102.443 89.2019 101.909 84.571 98.0884 80.9421 93.3731 80.7043 93.366 80.704 93.3099 80.7015 93.3099 80.7015 93.3099 80.7015 93.3031 80.6363 93.3006 80.6094 93.2467 80.0245 93.2175 79.4249 93.2175 78.8127 93.2175 72.7611 95.9433 67.8559 99.3056 67.8566L99.6897 67.8562C105.267 67.8524 109.956 64.0541 111.315 58.9031 111.726 57.3448 110.522 55.825 108.911 55.825Z" fill="#D2D2D2" transform="matrix(1.09091 0 0 1 626 146)"/><path d="M51.975 43.1521C47.9033 43.1521 44.4245 45.6819 43.018 49.2543 42.7985 49.8116 42.6298 50.3939 42.5168 50.9968 42.4087 51.574 42.3497 52.1685 42.3497 52.7771L42.3497 62.4021C45.3591 62.4021 48.0451 63.7839 49.81 65.947 49.905 65.8594 49.9996 65.7712 50.092 65.6787 51.8037 63.9671 52.7331 61.7707 52.8858 59.5313 57.4872 60.4835 62.4627 59.1774 66.0333 55.6065 67.0028 54.637 67.802 53.5618 68.4379 52.4206 65.0621 46.8641 58.9522 43.1521 51.975 43.1521Z" fill="#737373" transform="matrix(1.09091 0 0 1 626 146)"/><path d="M96.4727 53.4187C96.4727 56.0766 94.318 58.2312 91.6602 58.2312 89.0023 58.2312 86.8477 56.0766 86.8477 53.4187 86.8477 50.7609 89.0023 48.6062 91.6602 48.6062 94.318 48.6062 96.4727 50.7609 96.4727 53.4187Z" fill="#FFFFFF" transform="matrix(1.09091 0 0 1 626 146)"/><path d="M91.2771 53.9603C91.2771 54.9017 90.5139 55.6649 89.5725 55.6649 88.6311 55.6649 87.8679 54.9017 87.8679 53.9603 87.8679 53.0189 88.6311 52.2557 89.5725 52.2557 90.5139 52.2557 91.2771 53.0189 91.2771 53.9603Z" fill="#505050" transform="matrix(1.09091 0 0 1 626 146)"/><path d="M111.599 58.2332C111.599 59.5455 110.535 60.6093 109.223 60.6093 107.91 60.6093 106.846 59.5455 106.846 58.2332 106.846 56.9209 107.91 55.8571 109.223 55.8571 110.535 55.8571 111.599 56.9209 111.599 58.2332Z" fill="#505050" transform="matrix(1.09091 0 0 1 626 146)"/><path d="M92.375 103.203C92.3172 103.203 92.2585 103.187 92.2059 103.155 92.0554 103.061 92.0095 102.863 92.1029 102.713 92.1286 102.671 94.6959 98.5247 96.2907 94.3414 96.354 94.1758 96.5387 94.0927 96.7049 94.1559 96.8705 94.2191 96.9536 94.4042 96.8904 94.5701 95.2731 98.8125 92.6737 103.01 92.6477 103.052 92.587 103.15 92.4821 103.203 92.375 103.203Z" fill="#FFFFFF" transform="matrix(1.09091 0 0 1 626 146)"/><path d="M95.6773 116.302C95.5002 116.302 95.3565 116.158 95.3565 115.981 95.3565 113.172 93.0705 110.886 90.261 110.886 90.0839 110.886 89.9402 110.742 89.9402 110.565 89.9402 110.388 90.0839 110.244 90.261 110.244 93.4244 110.244 95.9981 112.818 95.9981 115.981 95.9981 116.158 95.8544 116.302 95.6773 116.302Z" fill="#FFFFFF" transform="matrix(1.09091 0 0 1 626 146)"/><path d="M97.6678 116.302C97.4907 116.302 97.3469 116.158 97.3469 115.981 97.3469 112.094 94.1848 108.932 90.2979 108.932 90.1208 108.932 89.9771 108.788 89.9771 108.611 89.9771 108.434 90.1208 108.291 90.2979 108.291 94.5384 108.291 97.9886 111.74 97.9886 115.981 97.9886 116.158 97.8452 116.302 97.6678 116.302Z" fill="#FFFFFF" transform="matrix(1.09091 0 0 1 626 146)"/><path d="M100.14 110.673C99.9627 110.673 99.8189 110.529 99.8189 110.352 99.8189 107.542 97.533 105.256 94.7235 105.256 94.5464 105.256 94.4026 105.113 94.4026 104.936 94.4026 104.758 94.5464 104.615 94.7235 104.615 97.8869 104.615 100.461 107.188 100.461 110.352 100.461 110.529 100.317 110.673 100.14 110.673Z" fill="#D2D2D2" transform="matrix(1.09091 0 0 1 626 146)"/><path d="M100.147 90.9168C99.9948 90.9168 99.8597 90.8087 99.8315 90.6543 99.5738 89.2571 98.8786 87.934 97.8741 86.9295 97.7486 86.804 97.7486 86.6013 97.8741 86.4758 97.9995 86.3504 98.2026 86.3504 98.3277 86.4758 99.4234 87.5718 100.181 89.0142 100.462 90.5379 100.494 90.7121 100.379 90.8792 100.205 90.9117 100.185 90.9152 100.166 90.9168 100.147 90.9168Z" fill="#FFFFFF" transform="matrix(1.09091 0 0 1 626 146)"/><path d="M97.473 90.6088C97.3335 90.6088 97.2051 90.5173 97.1647 90.3762 96.8339 89.2228 96.2109 88.1644 95.3629 87.3154 95.2378 87.1897 95.2378 86.9869 95.3632 86.8615 95.4887 86.7366 95.6914 86.7363 95.8169 86.8618 96.7415 87.788 97.4207 88.9417 97.7817 90.1994 97.8304 90.3694 97.7319 90.5472 97.5616 90.596 97.5321 90.6046 97.5022 90.6088 97.473 90.6088Z" fill="#FFFFFF" transform="matrix(1.09091 0 0 1 626 146)"/><path d="M73.8202 94.8252C73.8202 95.8883 72.9584 96.7502 71.8952 96.7502 70.8321 96.7502 69.9702 95.8883 69.9702 94.8252 69.9702 93.762 70.8321 92.9002 71.8952 92.9002 72.9584 92.9002 73.8202 93.762 73.8202 94.8252Z" fill="#FFFFFF" transform="matrix(1.09091 0 0 1 626 146)"/><path d="M64.5529 99.6438C64.5529 100.707 63.6911 101.569 62.6279 101.569 61.5648 101.569 60.7029 100.707 60.7029 99.6438 60.7029 98.5806 61.5648 97.7188 62.6279 97.7188 63.6911 97.7188 64.5529 98.5806 64.5529 99.6438Z" fill="#FFFFFF" transform="matrix(1.09091 0 0 1 626 146)"/><path d="M70.3774 100.927C70.3774 101.636 69.8028 102.21 69.094 102.21 68.3853 102.21 67.8107 101.636 67.8107 100.927 67.8107 100.218 68.3853 99.6438 69.094 99.6438 69.8028 99.6438 70.3774 100.218 70.3774 100.927Z" fill="#FFFFFF" transform="matrix(1.09091 0 0 1 626 146)"/><path d="M68.0273 94.8252C68.0273 95.5339 67.4527 96.1085 66.7439 96.1085 66.0352 96.1085 65.4606 95.5339 65.4606 94.8252 65.4606 94.1164 66.0352 93.5418 66.7439 93.5418 67.4527 93.5418 68.0273 94.1164 68.0273 94.8252Z" fill="#FFFFFF" transform="matrix(1.09091 0 0 1 626 146)"/></g></svg>